#N canvas 145 22 443 417 10;
#X declare -stdpath extra/mrpeach;
#X msg 108 344 disconnect;
#X msg 47 104 /visual/scene/object/next;
#X msg 67 133 /visual/scene/object/prev;
#X msg 76 320 connect localhost 9999;
#X msg 86 189 /visual/scene/slideshow \$1;
#X obj 86 162 tgl 15 0 empty empty empty 17 7 0 10 -262144 -1 -1 0
1;
#X msg 19 71 /visual/scene/object \$1;
#X floatatom 19 20 5 0 0 0 - - -, f 5;
#X msg 185 35 symbol image3;
#X msg 82 33 symbol text1;
#X msg 105 217 /visual/scene/next;
#X msg 124 247 /visual/scene/prev;
#X msg 255 247 /visual/scene \$1;
#X floatatom 255 217 5 0 0 0 - - -, f 5;
#X msg 310 193 symbol primitives;
#X msg 317 219 symbol script;
#X obj 234 377 declare -stdpath extra/mrpeach;
#X obj 47 283 mrpeach/packOSC;
#X obj 47 377 mrpeach/udpsend;
#X connect 0 0 18 0;
#X connect 1 0 17 0;
#X connect 2 0 17 0;
#X connect 3 0 18 0;
#X connect 4 0 17 0;
#X connect 5 0 4 0;
#X connect 6 0 17 0;
#X connect 7 0 6 0;
#X connect 8 0 6 0;
#X connect 9 0 6 0;
#X connect 10 0 17 0;
#X connect 11 0 17 0;
#X connect 12 0 17 0;
#X connect 13 0 12 0;
#X connect 14 0 12 0;
#X connect 15 0 12 0;
#X connect 17 0 18 0;
