#N canvas 787 46 391 599 10;
#X msg 96 529 disconnect;
#X obj 75 208 tgl 15 0 empty empty empty 17 7 0 10 -262144 -1 -1 1
1;
#X floatatom 27 35 5 0 0 0 - - -, f 5;
#X msg 185 35 symbol image3;
#X msg 88 34 symbol text1;
#X floatatom 107 375 5 0 0 0 - - -, f 5;
#X msg 164 374 symbol primitives;
#X msg 171 400 symbol script;
#X obj 242 556 print;
#X obj 242 520 oscparse;
#X obj 242 490 netreceive -u -b 8880;
#X obj 27 557 netsend -u -b;
#X obj 27 71 oscformat /visual/scene/object;
#X obj 47 129 oscformat /visual/scene/object/next;
#X msg 47 105 bang;
#X obj 27 482 list trim;
#X obj 27 457 list prepend send;
#X msg 87 259 bang;
#X obj 87 284 oscformat /visual/scene/next;
#X obj 75 230 oscformat /visual/scene/slideshow;
#X msg 99 313 bang;
#X obj 99 338 oscformat /visual/scene/prev;
#X obj 62 183 oscformat /visual/scene/object/prev;
#X msg 62 155 bang;
#X obj 107 425 oscformat /visual/scene;
#X msg 64 505 connect localhost 9999;
#X connect 0 0 11 0;
#X connect 1 0 19 0;
#X connect 2 0 12 0;
#X connect 3 0 12 0;
#X connect 4 0 12 0;
#X connect 5 0 24 0;
#X connect 6 0 24 0;
#X connect 7 0 24 0;
#X connect 9 0 8 0;
#X connect 10 0 9 0;
#X connect 12 0 16 0;
#X connect 13 0 16 0;
#X connect 14 0 13 0;
#X connect 15 0 11 0;
#X connect 16 0 15 0;
#X connect 17 0 18 0;
#X connect 18 0 16 0;
#X connect 19 0 16 0;
#X connect 20 0 21 0;
#X connect 21 0 16 0;
#X connect 22 0 16 0;
#X connect 23 0 22 0;
#X connect 24 0 16 0;
#X connect 25 0 11 0;
